<svg width="106" height="106" viewBox="0 0 106 106" fill="none" xmlns="http://www.w3.org/2000/svg">
<path d="M96.7695 97.1667L83.3871 83.7842M76.3646 18.2851L76.0554 35.0242C76.0112 37.3209 77.469 40.3685 79.324 41.7376L90.2772 50.0408C97.2997 55.3408 96.1513 61.8334 87.7597 64.4834L73.4939 68.9442C71.1089 69.695 68.5914 72.301 67.9731 74.7301L64.5722 87.715C61.878 97.9617 55.1646 98.9775 49.5996 89.9675L41.8262 77.38C40.4129 75.0834 37.0563 73.361 34.4063 73.4935L19.6547 74.2442C9.09891 74.7742 6.09553 68.6793 12.9855 60.641L21.7304 50.4825C23.3646 48.5834 24.1154 45.0501 23.3646 42.6651L18.904 28.3992C16.2981 20.0075 20.9798 15.3701 29.3273 18.1084L42.3565 22.3926C44.5648 23.0993 47.8772 22.6134 49.7322 21.2442L63.3356 11.4392C70.6673 6.13922 76.5413 9.23097 76.3646 18.2851Z" stroke="#292D32" stroke-width="1.5" stroke-linecap="round" stroke-linejoin="round"/>
</svg>
