<svg width="102" height="96" viewBox="0 0 102 96" fill="none" xmlns="http://www.w3.org/2000/svg">
<path d="M80.75 42V24C80.75 19.5817 76.9444 16 72.25 16H21.25C16.5556 16 12.75 19.5817 12.75 24V55.3044C12.75 59.7226 16.5556 63.3044 21.25 63.3044H27.9022V80L45.6413 63.3044H46.75M68.6929 73.5652L79.7799 84V73.5652H80.75C85.4444 73.5652 89.25 69.9835 89.25 65.5652V52C89.25 47.5817 85.4444 44 80.75 44H55.25C50.5556 44 46.75 47.5817 46.75 52V65.5652C46.75 69.9835 50.5556 73.5652 55.25 73.5652H68.6929Z" stroke="black" stroke-width="2" stroke-linecap="round" stroke-linejoin="round"/>
</svg>
