<svg width="100" height="100" viewBox="0 0 100 100" fill="none" xmlns="http://www.w3.org/2000/svg">
<path d="M62.4997 14.583H37.4997C24.8431 14.583 14.583 24.8431 14.583 37.4997V62.4997C14.583 75.1562 24.8431 85.4163 37.4997 85.4163H62.4997C75.1562 85.4163 85.4163 75.1562 85.4163 62.4997V37.4997C85.4163 24.8431 75.1562 14.583 62.4997 14.583Z" stroke="black" stroke-width="1.5" stroke-linecap="round" stroke-linejoin="round"/>
<path d="M49.9996 65.0246C58.2977 65.0246 65.0246 58.2977 65.0246 49.9996C65.0246 41.7015 58.2977 34.9746 49.9996 34.9746C41.7015 34.9746 34.9746 41.7015 34.9746 49.9996C34.9746 58.2977 41.7015 65.0246 49.9996 65.0246Z" stroke="black" stroke-width="1.5" stroke-linecap="round" stroke-linejoin="round"/>
<path d="M70.3913 33.8997C72.7615 33.8997 74.6829 31.9783 74.6829 29.6081C74.6829 27.2378 72.7615 25.3164 70.3913 25.3164C68.021 25.3164 66.0996 27.2378 66.0996 29.6081C66.0996 31.9783 68.021 33.8997 70.3913 33.8997Z" fill="black"/>
</svg>
