<?xml version="1.0" standalone="no"?>
<!DOCTYPE svg PUBLIC "-//W3C//DTD SVG 20010904//EN"
 "http://www.w3.org/TR/2001/REC-SVG-20010904/DTD/svg10.dtd">
<svg version="1.0" xmlns="http://www.w3.org/2000/svg"
 width="500.000000pt" height="500.000000pt" viewBox="0 0 500.000000 500.000000"
 preserveAspectRatio="xMidYMid meet">

<g transform="translate(0.000000,500.000000) scale(0.100000,-0.100000)"
fill="#000000" stroke="none">
<path d="M2500 4704 c0 -3 29 -48 65 -99 36 -52 65 -97 65 -100 0 -4 -38 -48
-85 -98 -82 -89 -84 -92 -58 -95 23 -3 40 10 113 89 l86 92 -8 -93 c-4 -51 -5
-97 -2 -102 3 -4 13 -8 23 -8 15 0 19 11 25 61 3 34 6 77 6 95 0 19 3 34 8 34
4 0 36 -45 71 -100 56 -89 66 -100 92 -100 l29 0 -70 105 -71 106 80 87 c74
81 79 88 59 97 -18 8 -31 -2 -105 -80 l-84 -90 6 93 6 92 -24 0 c-23 0 -25 -4
-33 -92 l-9 -93 -69 103 c-55 81 -74 102 -93 102 -12 0 -23 -3 -23 -6z"/>
<path d="M2040 4646 c-38 -8 -54 -16 -53 -26 4 -31 64 -346 69 -361 5 -18 0
-18 136 10 81 17 118 53 118 115 0 55 -32 96 -76 96 l-27 0 27 25 c36 33 37
95 1 130 -20 21 -33 25 -82 24 -32 -1 -83 -7 -113 -13z m148 -42 c16 -11 22
-25 22 -50 0 -30 -5 -37 -34 -49 -19 -8 -52 -17 -73 -21 l-39 -6 -11 59 c-6
32 -9 60 -7 62 5 5 71 18 99 20 11 0 31 -6 43 -15z m56 -176 c39 -55 8 -103
-77 -120 -49 -10 -60 -10 -67 2 -8 12 -21 86 -21 115 0 14 36 23 98 24 43 1
55 -3 67 -21z"/>
<path d="M3052 4608 c-44 -137 -94 -340 -86 -348 5 -4 52 -20 104 -34 72 -20
96 -23 102 -13 14 23 2 32 -76 52 -77 20 -77 20 -72 49 14 69 28 106 39 106 7
0 41 -9 77 -20 49 -15 66 -17 72 -7 14 22 2 32 -68 51 -38 11 -71 21 -73 23
-10 8 23 113 36 113 7 0 44 -9 82 -19 72 -20 81 -19 81 9 0 12 -23 22 -87 39
-49 13 -95 26 -104 28 -12 3 -20 -5 -27 -29z"/>
<path d="M1665 4531 c-99 -46 -128 -130 -84 -247 25 -66 83 -129 129 -139 76
-17 163 18 207 84 59 87 -5 274 -105 312 -38 14 -104 10 -147 -10z m153 -53
c60 -56 91 -186 56 -236 -38 -55 -141 -71 -187 -28 -59 55 -89 157 -64 217 30
73 139 99 195 47z"/>
<path d="M3317 4362 c-75 -157 -83 -178 -69 -189 9 -7 19 -13 22 -13 3 0 24
36 45 80 21 44 42 80 46 80 4 0 45 -18 92 -41 l85 -41 -15 -36 c-8 -21 -26
-58 -39 -84 l-24 -47 21 -11 c11 -7 22 -10 24 -8 3 2 42 83 89 180 l84 176
-23 10 c-22 10 -25 7 -59 -64 -19 -41 -37 -74 -40 -74 -14 0 -176 85 -176 92
0 5 16 39 34 77 l35 68 -23 11 c-23 10 -26 5 -109 -166z"/>
<path d="M1272 4318 c-40 -23 -71 -47 -70 -53 7 -25 204 -325 214 -325 6 0 17
6 23 13 8 11 2 28 -30 77 -22 34 -39 63 -37 64 87 49 118 91 118 157 0 33 -6
47 -34 75 -48 48 -89 46 -184 -8z m148 -28 c19 -19 24 -37 21 -70 -2 -15 -77
-90 -90 -90 -3 0 -25 29 -48 65 l-43 65 23 14 c69 43 106 47 137 16z"/>
<path d="M3778 4268 c-96 -115 -198 -242 -198 -248 0 -4 79 -71 175 -149 190
-155 181 -141 131 -199 -19 -21 -19 -23 -2 -40 16 -16 19 -14 61 33 49 55 51
61 31 84 -12 14 -1 32 96 149 100 120 109 135 95 149 -8 8 -20 12 -26 9 -6 -4
-56 -63 -112 -132 -56 -68 -104 -124 -108 -124 -3 0 -32 21 -63 46 l-57 45
111 136 c108 132 110 135 92 154 -19 18 -21 15 -124 -112 -58 -72 -109 -133
-113 -136 -10 -6 -117 76 -117 89 0 5 48 68 106 139 87 107 104 132 94 144
-19 23 -25 19 -72 -37z"/>
<path d="M1003 4113 c-103 -91 -110 -99 -96 -115 15 -17 19 -15 60 23 53 48
36 58 178 -105 55 -63 104 -114 109 -112 5 1 14 9 19 18 8 12 -13 42 -106 144
l-116 129 47 42 c43 38 46 43 31 58 -14 14 -25 7 -126 -82z"/>
<path d="M805 3919 c-122 -108 -98 -260 55 -343 43 -24 61 -28 102 -24 27 3
62 14 76 25 41 31 93 104 90 126 -5 36 -25 29 -53 -18 -30 -52 -76 -85 -118
-85 -63 0 -156 71 -177 136 -17 52 9 116 61 151 32 21 37 28 28 44 -13 26 -23
24 -64 -12z"/>
<path d="M4150 3785 c-85 -64 -156 -119 -158 -123 -1 -4 4 -16 12 -27 13 -18
22 -18 207 -7 106 6 194 10 196 9 1 -2 -50 -41 -113 -87 -63 -47 -122 -91
-131 -98 -16 -11 -16 -13 -1 -29 16 -15 28 -8 172 100 86 65 156 121 156 125
0 4 -7 15 -14 25 -12 16 -25 17 -184 6 -93 -6 -179 -9 -192 -7 -17 2 3 21 95
87 137 100 139 102 122 125 -11 15 -28 5 -167 -99z"/>
<path d="M2253 3838 c-42 -89 -36 -162 16 -228 62 -78 64 -103 17 -181 -45
-74 -58 -118 -58 -192 0 -106 -20 -37 -27 96 l-7 120 -36 32 c-26 24 -52 36
-94 45 -114 22 -171 56 -204 121 -11 21 -25 39 -30 39 -13 0 -23 -85 -16 -137
8 -62 32 -98 93 -140 72 -50 81 -74 58 -174 -15 -65 -17 -92 -9 -140 6 -32 9
-59 7 -59 -7 0 -36 68 -55 128 -40 131 -79 157 -221 146 -82 -6 -97 -4 -138
15 -26 12 -57 33 -69 47 -35 37 -43 30 -36 -27 14 -104 67 -167 163 -195 74
-21 90 -40 98 -111 11 -107 16 -132 35 -170 17 -35 14 -32 -39 26 -110 119
-141 125 -277 56 -96 -49 -130 -54 -207 -31 -57 17 -60 7 -18 -50 63 -86 112
-108 218 -98 69 6 76 5 100 -17 20 -19 53 -73 81 -130 1 -4 -23 7 -54 22 -94
48 -130 37 -234 -71 -67 -69 -111 -90 -189 -90 -17 0 -31 -4 -31 -8 0 -15 45
-51 90 -71 61 -28 120 -27 180 4 76 39 108 34 172 -24 30 -27 74 -60 98 -72
56 -29 38 -35 -68 -20 -154 20 -187 -3 -248 -172 -21 -58 -63 -103 -121 -129
-24 -10 -43 -23 -43 -28 0 -13 68 -30 124 -30 62 0 126 30 161 76 14 18 39 41
55 49 27 14 35 13 112 -12 88 -28 189 -34 241 -14 15 6 27 7 27 1 0 -19 -68
-60 -116 -69 -27 -6 -74 -15 -105 -21 -30 -6 -66 -18 -78 -27 -33 -22 -61 -90
-61 -146 0 -87 -19 -137 -72 -190 -27 -27 -47 -52 -43 -55 11 -11 115 -2 152
13 52 22 71 41 103 106 42 82 47 84 170 84 l106 0 -41 -26 c-86 -54 -101 -103
-70 -219 25 -92 17 -160 -27 -222 -10 -14 -18 -29 -18 -32 0 -24 110 21 153
62 40 37 55 70 63 133 9 77 24 96 92 114 83 24 132 43 166 68 l31 22 -22 -30
c-12 -17 -40 -48 -64 -70 -50 -47 -73 -96 -65 -139 3 -17 29 -69 57 -116 l50
-85 -4 -82 c-3 -46 -2 -83 1 -83 12 0 73 53 98 85 35 47 44 93 31 168 -15 92
-8 109 74 163 76 50 107 85 138 154 30 66 25 23 -9 -80 -17 -50 -30 -100 -30
-111 0 -49 32 -88 115 -143 90 -59 121 -99 133 -168 4 -24 12 -43 17 -42 16 1
54 76 61 121 9 64 -2 104 -46 163 -23 30 -40 65 -40 79 0 15 17 56 39 92 43
75 61 120 61 158 1 24 1 25 12 6 6 -11 14 -71 18 -134 l6 -113 36 -33 c26 -24
54 -37 108 -49 113 -26 157 -54 204 -130 17 -26 19 -27 28 -11 6 9 10 46 10
81 -1 86 -29 136 -103 186 -69 45 -75 64 -54 166 16 72 15 144 -2 190 -6 15
-3 14 17 -3 12 -11 42 -60 65 -110 65 -138 93 -154 234 -129 99 17 154 9 208
-32 44 -33 56 -31 48 9 -21 102 -82 169 -171 187 -106 22 -113 30 -135 148 -7
36 -26 87 -46 120 l-33 57 87 -92 c113 -118 125 -121 252 -64 101 45 164 53
228 26 43 -18 43 -18 43 -3 0 25 -65 106 -104 132 -35 23 -50 26 -124 26 -46
0 -92 5 -102 10 -11 6 -36 43 -57 83 -21 39 -55 89 -75 109 -21 21 -34 38 -30
38 4 0 39 -20 76 -45 127 -83 163 -80 280 25 81 73 110 85 194 84 23 -1 42 2
42 6 0 20 -84 81 -131 94 -56 17 -79 15 -151 -15 -75 -31 -91 -27 -169 47 -38
36 -90 75 -115 86 -25 11 -43 22 -40 26 3 3 48 -3 99 -13 153 -30 185 -14 256
132 42 85 76 118 149 144 18 6 31 16 29 22 -5 17 -68 35 -125 36 -66 1 -103
-15 -170 -73 -30 -25 -60 -46 -68 -46 -8 0 -47 13 -87 29 -39 16 -81 33 -92
37 -16 5 -11 9 23 15 107 20 140 65 151 208 6 84 12 107 34 140 15 22 38 48
52 57 37 24 31 34 -24 34 -102 0 -166 -41 -210 -134 -17 -36 -41 -71 -53 -77
-13 -7 -65 -13 -119 -14 -86 -1 -103 -4 -157 -31 -94 -46 -41 11 60 66 62 33
104 77 115 118 4 16 -2 61 -16 112 -28 110 -27 158 4 220 14 27 21 51 16 54
-5 3 -36 -8 -71 -25 -85 -43 -117 -88 -126 -180 -4 -41 -14 -78 -23 -90 -9
-11 -49 -31 -89 -44 -41 -14 -86 -33 -100 -43 -67 -46 -67 -42 -1 40 96 118
98 158 13 270 -65 87 -78 123 -70 199 3 33 2 59 -3 59 -14 0 -101 -98 -111
-125 -14 -38 -12 -99 6 -160 19 -69 8 -95 -69 -153 -52 -39 -117 -122 -117
-149 0 -7 -4 -13 -10 -13 -16 0 -11 83 9 141 48 139 35 189 -62 248 -112 68
-167 132 -167 196 0 39 -25 30 -47 -17z m103 -127 c21 -18 64 -47 94 -65 39
-22 61 -42 74 -70 l19 -39 -27 -91 c-33 -115 -33 -164 -2 -226 13 -27 22 -51
19 -54 -4 -3 -22 -6 -42 -6 -30 0 -87 -11 -197 -37 -28 -7 -44 33 -44 111 0
71 16 123 56 187 15 24 29 62 32 84 3 35 -1 47 -31 87 -19 25 -40 55 -47 68
-15 28 -15 100 1 147 l12 37 22 -49 c12 -28 39 -65 61 -84z m450 11 c3 -18 28
-63 56 -100 95 -125 95 -153 6 -264 -28 -35 -55 -74 -60 -88 -27 -67 -64 -130
-78 -129 -8 0 -46 6 -84 13 -55 9 -73 17 -89 38 -39 52 10 156 107 227 31 23
63 55 72 72 14 29 14 37 0 95 -23 92 -21 134 10 180 37 55 49 60 52 21 1 -17
5 -47 8 -65z m437 -109 c-21 -52 -19 -115 7 -201 36 -117 18 -154 -103 -222
-70 -39 -121 -96 -137 -155 l-12 -44 -47 37 c-26 21 -77 51 -114 67 -36 17
-67 35 -67 41 0 23 61 105 100 133 23 16 77 42 121 56 97 33 114 52 124 142 9
84 24 115 77 153 57 42 71 40 51 -7z m-1307 -66 c17 -9 65 -24 105 -33 57 -13
81 -24 106 -49 32 -32 33 -35 33 -121 0 -104 12 -156 47 -202 14 -18 23 -35
22 -36 -2 -1 -31 -19 -64 -39 -33 -21 -73 -48 -90 -61 -28 -23 -33 -23 -62
-11 -26 11 -35 23 -47 66 -20 66 -20 85 1 185 21 102 13 125 -63 178 -66 45
-93 96 -94 171 l0 50 38 -41 c20 -23 51 -48 68 -57z m-386 -243 c24 -10 66
-14 140 -13 146 3 161 -7 201 -136 31 -104 61 -142 147 -191 2 -1 -20 -32 -48
-69 -28 -36 -59 -84 -70 -106 -11 -21 -24 -39 -28 -39 -12 1 -81 56 -102 83
-34 43 -52 98 -61 181 -10 101 -26 123 -114 159 -38 15 -78 35 -88 45 -22 20
-51 75 -61 116 l-7 28 28 -22 c15 -12 44 -28 63 -36z m2076 13 c-38 -50 -56
-100 -56 -159 -2 -143 -33 -187 -146 -208 -109 -19 -200 -49 -246 -81 l-43
-29 -18 23 c-10 12 -35 43 -57 68 -36 43 -38 49 -30 80 7 24 24 43 57 66 59
39 118 53 215 50 94 -3 120 13 157 96 16 34 38 70 49 80 24 22 87 46 120 47
l23 0 -25 -33z m-891 -207 c311 -95 509 -398 473 -723 -32 -289 -246 -524
-530 -581 -146 -30 -291 -14 -416 44 -250 117 -395 343 -395 615 0 340 236
614 578 669 64 10 221 -3 290 -24z m-1150 -140 c14 -5 60 -45 103 -87 65 -66
128 -116 189 -152 10 -5 9 -18 -4 -58 -14 -44 -22 -54 -57 -70 -22 -10 -63
-18 -93 -18 -63 0 -95 26 -143 116 -17 32 -43 68 -58 80 -24 19 -35 21 -100
15 -54 -4 -83 -2 -110 10 -38 16 -87 56 -103 86 -8 15 -6 16 22 6 49 -17 124
-2 212 42 85 42 101 46 142 30z m2308 -28 c14 -6 8 -14 -35 -42 -46 -30 -59
-47 -95 -120 -69 -141 -100 -157 -240 -124 -106 24 -166 8 -247 -66 l-42 -39
-13 62 c-7 34 -26 94 -42 132 l-30 70 31 27 c40 37 129 62 196 55 28 -3 83
-19 122 -36 95 -42 113 -40 171 14 26 24 60 51 77 60 30 15 115 19 147 7z
m-2364 -306 c14 -7 54 -27 87 -44 70 -36 132 -42 191 -17 19 8 36 15 37 15 0
0 1 -62 1 -138 l0 -137 -73 -3 c-86 -3 -138 16 -204 75 -92 83 -119 90 -213
47 -69 -32 -132 -30 -191 7 l-39 24 44 7 c60 10 119 47 168 105 67 80 120 97
192 59z m1942 -41 c25 -13 72 -51 106 -84 52 -53 66 -61 97 -61 20 0 56 9 79
20 55 27 123 28 175 1 56 -28 59 -39 15 -46 -65 -11 -91 -26 -165 -91 -39 -36
-82 -67 -95 -70 -43 -11 -90 4 -160 51 -70 46 -110 58 -230 72 l-53 5 0 60 c0
69 18 102 83 149 47 34 70 33 148 -6z m-83 -259 c59 -30 100 -77 140 -160 16
-34 37 -68 47 -76 12 -10 51 -17 119 -20 90 -5 105 -8 136 -32 19 -15 43 -40
53 -57 l18 -31 -26 10 c-55 21 -131 12 -203 -24 -105 -53 -155 -52 -205 2 -18
20 -55 60 -80 88 -55 60 -128 89 -198 78 -34 -6 -41 -4 -36 7 35 82 68 174 73
209 l7 42 52 -5 c29 -3 75 -17 103 -31z m-1758 -60 c30 1 95 3 143 6 75 4 90
2 94 -11 3 -9 16 -43 29 -75 30 -77 20 -102 -51 -129 -74 -28 -146 -26 -242 8
-98 33 -122 28 -177 -40 -43 -52 -89 -75 -153 -75 -55 0 -88 14 -56 24 39 12
93 82 127 165 19 45 41 90 48 98 25 30 70 42 128 35 30 -4 80 -6 110 -6z m345
-221 c21 -31 60 -75 87 -99 26 -24 48 -49 48 -55 0 -24 -83 -100 -133 -122
-45 -21 -65 -24 -152 -22 -117 3 -148 -10 -180 -73 -48 -94 -98 -133 -172
-134 l-33 0 35 45 c39 52 55 99 56 170 1 116 40 156 171 175 108 15 157 43
200 115 18 30 33 55 34 55 0 0 18 -25 39 -55z m1322 3 c45 -47 71 -103 87
-188 17 -93 44 -121 134 -139 84 -16 132 -58 156 -138 7 -22 7 -22 -51 4 -55
26 -60 26 -138 15 -136 -20 -163 -17 -199 21 -17 19 -42 63 -56 98 -16 43 -40
79 -70 109 -25 25 -63 64 -84 87 l-38 43 42 52 c49 62 57 66 131 67 50 1 58
-2 86 -31z m-239 -145 c68 -87 81 -152 56 -274 -22 -110 -14 -132 66 -187 67
-46 90 -88 90 -162 l0 -55 -31 38 c-38 46 -85 71 -164 87 -74 15 -117 36 -135
64 -8 12 -17 67 -21 132 -4 68 -13 122 -22 140 -18 35 -91 104 -110 104 -6 0
25 20 70 43 44 24 97 58 117 75 20 18 41 32 46 32 4 0 22 -17 38 -37z m-861
-58 c32 -19 63 -35 69 -35 15 0 24 -34 24 -91 0 -41 -4 -51 -35 -78 -47 -41
-83 -59 -147 -72 -103 -22 -130 -49 -143 -145 -3 -28 -15 -65 -25 -81 -20 -34
-73 -77 -107 -87 l-23 -7 20 43 c23 52 25 125 5 192 -35 116 -11 162 114 226
71 35 128 85 168 147 9 13 17 23 19 23 1 0 29 -16 61 -35z m238 -81 c44 -8 92
-13 108 -10 27 5 27 5 27 -48 0 -105 -44 -182 -144 -248 -97 -65 -98 -66 -90
-184 7 -112 0 -136 -54 -187 l-30 -29 -4 74 c-3 67 -7 80 -51 149 -53 85 -65
126 -47 159 7 13 43 58 80 101 74 87 95 138 84 211 -7 40 -6 41 17 34 13 -4
60 -14 104 -22z m368 -9 c42 -31 47 -40 47 -73 0 -55 -15 -97 -60 -172 -51
-85 -51 -110 3 -190 37 -56 42 -70 41 -119 0 -31 -7 -69 -15 -84 l-16 -29 -17
44 c-22 58 -50 87 -133 142 -65 43 -103 89 -103 125 0 7 14 53 31 104 26 79
29 101 24 157 -3 36 -9 73 -11 83 -4 14 1 17 28 18 18 0 53 6 78 13 25 8 47
14 50 14 3 1 26 -14 53 -33z"/>
<path d="M595 3565 c-77 -27 -136 -129 -121 -210 9 -48 69 -112 131 -141 57
-27 132 -31 173 -10 89 46 130 174 82 253 -26 44 -92 90 -153 108 -60 18 -61
18 -112 0z m148 -73 c82 -44 109 -99 82 -168 -32 -85 -102 -106 -200 -60 -97
45 -129 116 -87 196 38 72 109 83 205 32z"/>
<path d="M4392 3420 c-90 -43 -166 -81 -169 -83 -2 -3 0 -14 6 -26 11 -20 13
-19 94 20 l82 40 43 -92 c23 -50 42 -93 42 -94 0 -1 -36 -19 -80 -39 -44 -20
-80 -42 -80 -49 1 -41 17 -37 193 47 97 47 177 89 177 93 0 4 -5 15 -10 23 -8
13 -19 10 -75 -18 -36 -17 -70 -32 -76 -32 -9 0 -89 157 -89 174 0 4 34 23 75
43 66 31 73 37 64 54 -5 10 -15 19 -22 18 -7 0 -85 -36 -175 -79z"/>
<path d="M458 2699 c-32 -12 -48 -53 -37 -93 10 -37 24 -46 71 -46 43 0 68 27
68 76 0 50 -50 81 -102 63z"/>
<path d="M4610 2703 c-51 -19 -69 -93 -32 -126 25 -23 85 -22 105 1 31 34 14
122 -23 122 -5 0 -14 2 -22 4 -7 3 -20 2 -28 -1z"/>
<path d="M418 2153 c-24 -3 -38 -9 -38 -18 0 -11 15 -14 68 -12 l67 2 3 -37 3
-37 -62 -3 c-42 -2 -64 -7 -67 -17 -4 -11 10 -13 72 -9 42 3 78 7 79 9 2 2 1
32 -1 67 l-4 62 -41 -2 c-23 -1 -59 -3 -79 -5z"/>
<path d="M4580 2105 c0 -49 3 -57 25 -67 20 -9 28 -8 44 7 19 17 21 16 48 -5
41 -32 44 -3 3 31 -39 33 -36 61 6 57 15 -2 29 2 31 8 4 13 -49 24 -114 24
l-43 0 0 -55z m70 3 c0 -32 -15 -52 -34 -45 -10 4 -16 18 -16 37 0 25 4 30 25
30 19 0 25 -5 25 -22z"/>
<path d="M4545 1862 c-4 -10 13 -35 47 -70 29 -30 46 -52 37 -49 -9 3 -37 9
-63 12 -57 9 -63 -10 -8 -24 131 -34 147 -22 71 56 -45 47 -50 55 -29 49 68
-17 103 -19 98 -6 -2 7 -36 21 -76 30 -63 15 -72 15 -77 2z"/>
<path d="M463 1832 c-71 -16 -103 -28 -103 -38 0 -16 5 -17 47 -5 30 9 32 8
31 -20 -2 -60 58 -87 122 -54 35 18 47 54 29 87 -7 12 -12 28 -11 35 4 21 -11
20 -115 -5z m97 -26 c32 -39 -18 -86 -75 -72 -45 11 -30 66 20 79 35 8 42 7
55 -7z"/>
<path d="M4460 1561 c0 -6 11 -16 25 -21 29 -11 29 -12 13 -56 -10 -30 -13
-31 -40 -22 -30 11 -48 4 -32 -11 15 -15 132 -60 138 -53 12 11 5 20 -24 32
-16 7 -30 14 -30 15 0 1 7 19 15 39 13 31 18 35 35 26 24 -13 50 -13 50 0 0
12 -79 48 -122 57 -18 3 -28 1 -28 -6z"/>
<path d="M556 1529 c-57 -45 -18 -137 53 -125 39 6 81 41 81 68 0 22 -18 60
-34 70 -21 15 -74 8 -100 -13z m104 -44 c0 -42 -69 -72 -98 -43 -17 17 -15 42
6 60 38 35 92 25 92 -17z"/>
<path d="M714 1264 c-38 -19 -57 -55 -45 -87 11 -29 37 -51 45 -39 3 6 -1 15
-9 22 -23 19 -18 46 12 70 33 26 65 23 78 -7 5 -13 15 -23 22 -23 16 0 16 5
-2 39 -22 44 -50 50 -101 25z"/>
<path d="M4316 1258 c-24 -34 -20 -73 11 -97 54 -43 99 -36 129 20 11 22 13
34 5 42 -7 7 -12 5 -17 -9 -11 -30 -35 -54 -56 -54 -24 0 -23 13 5 61 19 34
20 41 7 49 -27 17 -68 11 -84 -12z m47 -43 c-15 -30 -19 -33 -31 -21 -21 21
-6 56 24 56 24 0 24 0 7 -35z"/>
<path d="M900 1068 c0 -8 5 -19 12 -26 6 -6 10 -13 7 -15 -72 -55 -98 -82 -90
-90 7 -7 25 2 55 26 51 42 53 43 77 21 32 -29 28 2 -7 46 -38 49 -54 60 -54
38z"/>
<path d="M4156 1020 c-31 -38 -32 -42 -6 -65 26 -23 62 -80 58 -92 -2 -4 2
-10 7 -13 6 -3 11 7 13 22 2 19 -7 38 -33 66 -22 26 -33 45 -29 56 9 23 21 20
68 -19 42 -34 66 -44 66 -26 0 7 -51 51 -106 93 -8 5 -21 -3 -38 -22z"/>
<path d="M1006 781 c-51 -52 -74 -81 -66 -86 7 -4 23 4 39 19 l28 27 16 -25
c9 -13 25 -27 36 -31 29 -9 78 20 97 57 20 38 7 73 -31 88 -14 5 -25 14 -25
20 0 21 -17 8 -94 -69z m118 23 c22 -22 20 -41 -9 -69 -29 -30 -61 -32 -75 -5
-13 24 -1 51 32 74 28 20 33 20 52 0z"/>
<path d="M3947 792 c-40 -44 5 -132 67 -132 36 0 76 34 76 64 0 14 -6 12 -29
-13 -33 -35 -39 -37 -66 -18 -17 13 -16 16 19 42 40 31 45 49 17 65 -30 15
-66 12 -84 -8z m58 -8 c14 -6 12 -11 -11 -35 -20 -21 -30 -26 -36 -17 -11 18
-10 25 8 42 18 18 17 18 39 10z"/>
<path d="M1310 643 c0 -5 14 -16 30 -25 17 -9 30 -22 30 -28 0 -19 -28 -22
-54 -5 -34 23 -74 13 -82 -21 -8 -31 19 -64 53 -64 13 0 22 -4 18 -9 -3 -5 -1
-12 4 -15 13 -8 81 87 81 112 0 11 -12 30 -26 41 -27 21 -54 28 -54 14z m11
-84 c16 -8 18 -13 8 -25 -22 -26 -77 -10 -66 20 7 19 30 21 58 5z"/>
<path d="M3756 632 c-3 -5 10 -32 29 -60 19 -28 35 -53 35 -56 0 -3 -13 -14
-30 -26 l-29 -21 -37 56 c-24 36 -41 52 -47 46 -6 -6 1 -27 22 -60 50 -77 53
-79 110 -37 l49 36 14 -22 c9 -13 19 -18 26 -14 15 9 -22 66 -42 66 -8 0 -29
22 -47 50 -34 50 -43 57 -53 42z"/>
<path d="M1521 440 c-19 -36 -30 -68 -26 -77 5 -14 10 -11 25 15 11 18 23 32
28 32 6 0 35 -17 60 -36 2 -1 -3 -16 -12 -32 -12 -23 -13 -31 -3 -35 16 -6 89
131 74 140 -9 6 -32 -17 -39 -39 -2 -6 -20 -2 -40 8 -36 17 -37 18 -22 45 17
34 17 39 1 39 -7 0 -27 -27 -46 -60z"/>
<path d="M3500 473 c-55 -20 -67 -82 -24 -132 30 -36 61 -40 95 -12 31 25 21
34 -18 19 -36 -13 -58 -1 -74 39 -11 31 -2 52 27 59 13 3 24 12 24 20 0 15 -5
16 -30 7z"/>
<path d="M3252 361 c-8 -4 -21 -39 -31 -77 l-18 -69 -18 58 c-11 34 -24 57
-33 57 -8 0 -12 -6 -9 -12 2 -7 13 -39 23 -72 18 -58 39 -80 54 -56 4 7 13 39
20 71 7 32 16 57 20 54 4 -2 13 -25 20 -50 13 -47 24 -62 34 -46 6 8 -31 129
-43 143 -3 4 -12 4 -19 -1z"/>
<path d="M1825 335 c-49 -48 -29 -130 34 -137 35 -4 37 18 3 25 -38 8 -46 29
-27 74 15 34 16 35 55 29 46 -7 55 9 14 24 -38 15 -53 12 -79 -15z"/>
<path d="M2070 284 c0 -8 10 -14 21 -14 19 0 21 -4 15 -35 -3 -19 -9 -51 -12
-70 -5 -28 -3 -35 10 -35 9 0 16 7 16 15 0 7 5 36 11 63 9 45 12 49 36 44 19
-3 24 -1 21 9 -2 7 -30 19 -61 25 -47 9 -57 9 -57 -2z"/>
<path d="M2346 198 c-13 -109 -13 -108 47 -108 29 0 58 5 65 12 16 16 16 58 0
58 -9 0 -9 3 0 12 7 7 12 22 12 34 0 24 -41 44 -90 44 -25 0 -28 -4 -34 -52z
m94 2 c0 -15 -7 -20 -29 -20 -31 0 -47 13 -36 30 3 6 19 10 36 10 22 0 29 -5
29 -20z m-16 -46 c9 -3 16 -15 16 -25 0 -15 -7 -19 -35 -19 -31 0 -35 3 -35
25 0 26 19 32 54 19z"/>
<path d="M2666 229 c-54 -42 -24 -142 43 -142 72 0 102 92 46 140 -32 28 -55
29 -89 2z m85 -36 c13 -36 -2 -77 -30 -81 -33 -5 -51 16 -51 58 0 44 5 50 42
50 22 0 31 -6 39 -27z"/>
</g>
</svg>
