<?xml version="1.0" standalone="no"?>
<!DOCTYPE svg PUBLIC "-//W3C//DTD SVG 20010904//EN"
 "http://www.w3.org/TR/2001/REC-SVG-20010904/DTD/svg10.dtd">
<svg version="1.0" xmlns="http://www.w3.org/2000/svg"
 width="500.000000pt" height="500.000000pt" viewBox="0 0 500.000000 500.000000"
 preserveAspectRatio="xMidYMid meet">

<g transform="translate(0.000000,500.000000) scale(0.100000,-0.100000)"
fill="#000000" stroke="none">
<path d="M2475 4053 c10 -16 33 -50 51 -77 l33 -49 -60 -65 c-46 -49 -58 -67
-47 -74 9 -6 31 11 79 63 l66 71 -5 -76 c-4 -64 -2 -76 11 -76 15 0 21 23 30
115 2 29 5 27 51 -43 45 -69 69 -92 82 -79 3 3 -15 38 -40 77 -25 39 -46 74
-46 78 0 4 25 35 56 70 74 83 43 85 -41 2 l-60 -60 0 67 c0 94 -21 96 -31 3
l-7 -71 -50 75 c-34 52 -56 76 -70 76 -19 0 -19 -1 -2 -27z"/>
<path d="M2145 4035 c-5 -2 -22 -6 -36 -9 l-26 -6 27 -137 c15 -75 32 -139 38
-141 24 -8 124 20 149 42 45 39 25 126 -29 126 -17 0 -17 1 2 20 11 11 20 31
20 45 0 41 -33 65 -87 64 -27 0 -52 -2 -58 -4z m93 -37 c24 -24 14 -58 -23
-74 -54 -22 -72 -19 -79 17 -9 48 -8 57 12 62 34 9 78 7 90 -5z m38 -133 c15
-23 15 -27 0 -49 -10 -16 -30 -28 -58 -33 -48 -10 -50 -8 -62 59 -6 34 -5 37
21 41 67 10 82 7 99 -18z"/>
<path d="M2876 4022 c-7 -12 -78 -274 -74 -276 8 -6 129 -36 143 -36 8 0 15 6
15 13 0 8 -25 21 -60 31 -34 9 -59 20 -56 24 2 4 9 26 15 49 l11 41 53 -14
c65 -17 67 -17 67 0 0 9 -22 21 -56 31 -43 13 -54 19 -50 33 3 9 8 29 11 44
l7 27 46 -15 c60 -18 82 -18 82 1 0 8 -3 15 -8 15 -4 0 -37 9 -74 19 -37 11
-70 16 -72 13z"/>
<path d="M1832 3940 c-42 -26 -66 -81 -57 -129 16 -84 76 -151 135 -151 36 1
105 34 124 61 37 53 10 171 -50 218 -35 28 -107 28 -152 1z m119 -20 c20 -11
52 -68 63 -112 13 -56 -31 -108 -95 -110 -40 -1 -82 42 -100 101 -16 53 -5 88
34 111 36 22 68 25 98 10z"/>
<path d="M3061 3824 c-33 -69 -58 -130 -55 -135 13 -22 33 -4 57 51 l26 60 66
-32 c36 -18 65 -36 65 -40 0 -5 -11 -31 -25 -59 -25 -49 -26 -69 -2 -69 16 1
131 246 122 259 -12 21 -26 10 -52 -43 l-26 -54 -64 31 c-34 17 -63 35 -63 39
0 5 11 31 25 57 21 42 22 50 9 55 -9 3 -17 6 -19 6 -2 0 -30 -57 -64 -126z"/>
<path d="M1565 3790 c-27 -16 -50 -33 -50 -38 0 -13 149 -242 158 -242 20 0
16 32 -8 68 l-27 41 47 45 c43 41 47 48 41 78 -9 45 -43 78 -80 78 -17 0 -53
-14 -81 -30z m105 -20 c27 -27 25 -56 -6 -85 -36 -34 -47 -32 -78 15 -30 45
-27 56 18 76 41 18 43 17 66 -6z"/>
<path d="M3388 3738 c-24 -29 -65 -79 -91 -110 l-48 -57 131 -106 c79 -65 128
-111 124 -118 -4 -7 -14 -20 -22 -30 -12 -14 -13 -20 -3 -30 10 -9 20 -4 46
28 22 25 31 43 25 49 -6 6 -10 13 -10 17 0 4 34 49 75 99 71 87 82 109 59 117
-5 2 -44 -40 -87 -92 -43 -52 -81 -95 -85 -95 -4 1 -25 16 -46 34 l-39 34 68
83 c38 46 75 91 82 100 11 14 11 18 -1 28 -12 10 -29 -5 -96 -88 l-82 -100
-44 35 -44 36 81 99 c72 87 87 119 59 119 -5 0 -28 -24 -52 -52z"/>
<path d="M1379 3654 c-99 -87 -95 -82 -81 -96 9 -9 18 -6 42 17 35 33 30 37
131 -80 64 -73 76 -83 88 -70 12 12 3 26 -67 103 -45 49 -82 94 -82 99 0 5 11
20 25 33 25 23 33 50 16 50 -5 0 -37 -25 -72 -56z"/>
<path d="M1207 3481 c-59 -65 -58 -132 1 -194 38 -40 74 -57 123 -57 36 0 48
6 86 45 26 25 43 51 41 61 -5 29 -22 26 -37 -6 -27 -63 -92 -79 -156 -40 -79
49 -85 136 -13 188 10 7 18 20 18 28 0 25 -27 15 -63 -25z"/>
<path d="M3662 3393 c-95 -73 -110 -88 -100 -101 11 -13 35 -14 158 -8 l145 7
-98 -72 c-80 -58 -96 -74 -86 -85 7 -9 16 -11 23 -6 6 5 57 43 114 86 56 42
102 81 102 85 0 26 -30 30 -160 21 -74 -5 -136 -7 -138 -6 -1 2 39 33 89 70
81 60 101 85 73 92 -5 1 -60 -36 -122 -83z"/>
<path d="M2271 3369 c-22 -63 -8 -134 33 -168 24 -20 20 -52 -14 -116 -20 -38
-30 -72 -31 -104 -1 -72 -17 -20 -18 59 -1 86 -15 104 -99 130 -81 25 -107 41
-131 81 -20 32 -24 30 -34 -11 -12 -52 9 -101 64 -150 l52 -46 -13 -67 c-7
-37 -10 -81 -6 -98 10 -51 -9 -24 -29 40 -26 86 -51 107 -128 104 -88 -3 -122
4 -157 34 -17 14 -33 24 -35 21 -2 -2 1 -24 6 -48 12 -54 49 -95 98 -111 55
-18 69 -35 77 -98 3 -31 13 -72 21 -91 13 -32 11 -31 -39 23 -64 68 -89 72
-178 27 -62 -31 -107 -37 -142 -19 -30 16 -33 3 -7 -35 34 -51 67 -66 141 -66
70 0 81 -6 112 -68 l17 -33 -30 15 c-16 9 -47 16 -67 16 -32 0 -45 -7 -83 -49
-54 -57 -78 -71 -126 -73 -42 -1 -44 -10 -9 -37 49 -39 88 -45 140 -22 64 29
88 26 131 -13 21 -18 52 -41 68 -50 29 -16 29 -16 -51 -10 -75 5 -83 4 -108
-18 -15 -13 -40 -52 -55 -88 -21 -52 -34 -69 -64 -85 -60 -32 -45 -55 37 -55
44 0 77 17 114 62 27 32 56 35 117 13 49 -17 128 -19 158 -4 22 12 22 12 4 -9
-22 -24 -54 -37 -128 -52 -77 -15 -97 -38 -108 -127 -9 -69 -29 -115 -59 -132
-28 -16 -2 -34 40 -28 49 7 85 30 106 69 39 70 44 73 125 73 41 0 73 -3 70 -7
-7 -13 16 -9 45 6 15 8 43 35 62 59 l35 45 45 -26 c56 -32 60 -38 60 -84 0
-32 -5 -41 -37 -63 -21 -14 -61 -32 -89 -41 -71 -20 -82 -32 -94 -93 -11 -59
-29 -85 -74 -108 -27 -14 -28 -14 -20 3 11 24 11 126 0 182 -8 40 -7 44 28 77
21 19 31 35 24 35 -8 0 -27 -13 -42 -29 -31 -32 -30 -25 -11 -171 5 -34 1 -54
-14 -84 -11 -22 -19 -42 -16 -44 9 -9 71 20 97 45 26 25 34 44 52 125 5 23 15
30 64 44 31 9 71 23 87 32 27 13 25 9 -17 -36 -59 -63 -61 -90 -13 -176 26
-47 35 -75 35 -109 0 -53 14 -61 47 -25 36 41 45 68 41 135 l-3 66 59 46 c32
25 67 62 77 81 22 43 24 28 4 -30 -18 -52 -19 -111 -2 -132 6 -8 33 -29 59
-47 57 -38 88 -76 88 -107 0 -42 20 -36 41 11 25 55 21 92 -16 147 -32 48 -32
61 4 133 17 33 34 69 38 80 4 13 9 -10 13 -62 7 -100 26 -125 104 -144 69 -16
100 -33 126 -69 30 -42 40 -38 40 20 0 65 -18 100 -69 133 l-41 27 3 109 c2
126 11 129 58 24 38 -85 62 -97 162 -81 70 11 77 10 111 -10 21 -12 41 -22 47
-22 27 0 -15 97 -54 123 -13 8 -41 19 -62 23 -50 9 -71 32 -79 85 -4 24 -18
64 -32 89 l-25 45 58 -62 c32 -34 70 -64 84 -68 19 -5 48 3 99 25 71 31 103
34 156 13 35 -13 0 49 -50 87 -11 9 -50 17 -89 20 l-71 5 -29 50 c-16 28 -41
63 -55 78 -27 28 -26 28 45 -8 85 -45 101 -43 172 21 51 46 108 69 144 58 24
-7 21 9 -5 33 -51 46 -106 55 -171 28 -50 -21 -52 -20 -100 24 -23 21 -60 48
-82 59 -47 25 -29 28 56 10 77 -16 101 -3 141 77 37 74 62 102 99 110 60 13
18 45 -60 45 -44 0 -55 -5 -96 -40 -25 -22 -52 -40 -59 -40 -7 0 -39 11 -72
24 l-59 24 41 11 c61 16 75 39 85 128 4 43 8 79 8 80 1 2 18 22 38 44 l38 42
-58 -5 c-65 -5 -96 -27 -129 -93 -12 -22 -26 -43 -32 -47 -6 -4 -40 -8 -76 -8
-42 0 -81 -7 -110 -20 l-45 -20 26 22 c14 13 47 35 73 50 65 39 74 63 53 146
-21 82 -21 105 -1 143 23 45 14 51 -35 27 -48 -23 -81 -68 -81 -110 0 -44 -18
-78 -47 -90 -16 -6 -51 -21 -80 -34 l-51 -22 39 51 c53 70 52 105 -1 176 -46
60 -55 87 -47 137 7 43 -3 43 -42 -1 -44 -51 -51 -97 -25 -183 5 -19 -3 -32
-49 -75 -31 -29 -65 -68 -76 -87 l-21 -35 0 30 c0 17 7 52 15 79 30 99 18 128
-82 190 -41 25 -73 69 -73 101 0 27 -28 16 -39 -16z m113 -104 c31 -20 63 -47
72 -61 16 -23 16 -30 -5 -103 -17 -65 -19 -84 -10 -112 7 -19 16 -38 20 -43
17 -19 9 -26 -29 -26 -22 0 -61 -7 -88 -15 -61 -18 -69 -11 -69 64 0 45 7 70
33 120 37 70 36 82 -10 145 -26 35 -29 47 -24 84 9 64 16 69 37 23 13 -29 34
-51 73 -76z m303 -32 c65 -82 65 -105 5 -182 -20 -26 -47 -69 -60 -97 l-24
-50 -52 10 c-57 12 -86 30 -86 53 0 31 42 93 90 133 53 45 61 69 39 127 -13
36 -4 84 24 119 l22 29 6 -52 c5 -36 16 -64 36 -90z m258 -18 c-12 -38 -12
-53 1 -100 28 -108 21 -125 -80 -189 -51 -32 -59 -42 -76 -88 l-9 -27 -52 35
c-28 19 -62 37 -75 40 -30 8 -30 20 1 67 27 38 77 70 132 82 39 8 73 48 73 85
0 48 21 90 58 115 20 14 37 25 38 25 1 0 -4 -20 -11 -45z m-823 -54 c89 -19
101 -33 107 -133 4 -57 12 -93 24 -112 11 -15 15 -31 10 -35 -4 -4 -31 -24
-60 -44 -89 -62 -120 -28 -109 121 4 48 4 95 1 104 -4 10 -22 27 -41 39 -41
25 -64 65 -64 112 l0 35 38 -38 c29 -29 50 -40 94 -49z m-237 -151 c101 0 117
-10 144 -93 22 -64 40 -91 83 -121 l22 -16 -26 -27 c-15 -16 -37 -47 -50 -70
l-24 -42 -37 25 c-46 31 -67 70 -73 137 -9 88 -19 102 -84 126 -51 19 -61 27
-79 64 -28 57 -27 60 12 37 25 -16 50 -20 112 -20z m1340 32 c-35 -26 -48 -56
-56 -134 -7 -71 -12 -86 -34 -105 -14 -13 -36 -23 -48 -23 -37 0 -160 -39
-188 -59 l-25 -19 -37 45 c-20 25 -37 54 -37 63 0 44 121 100 188 87 44 -8 87
16 104 59 19 46 45 72 84 84 37 11 62 12 49 2z m-612 -161 c119 -41 210 -121
266 -233 85 -170 56 -365 -75 -507 -144 -155 -360 -195 -546 -100 -50 26 -131
100 -170 157 -136 197 -79 488 123 628 103 71 283 96 402 55z m-783 -96 c16
-8 40 -30 54 -48 19 -25 103 -90 144 -113 1 0 -5 -18 -13 -38 -17 -40 -46 -56
-101 -56 -39 0 -64 21 -93 79 -31 60 -55 73 -122 65 -55 -6 -58 -5 -95 29
l-39 35 46 0 c29 -1 65 8 100 24 46 22 75 34 87 37 2 1 16 -6 32 -14z m1555
-15 c11 -5 15 -9 8 -9 -23 -2 -71 -52 -93 -98 -43 -93 -73 -107 -179 -82 -54
12 -99 -1 -146 -42 l-33 -29 -7 36 c-3 20 -17 61 -30 90 l-24 53 37 23 c52 32
137 36 190 9 54 -28 103 -27 128 0 45 51 101 69 149 49z m-1562 -226 c70 -36
106 -40 158 -19 15 5 16 -5 15 -87 l-1 -93 -35 -3 c-53 -5 -104 14 -155 58
-59 51 -83 57 -133 31 -50 -25 -71 -26 -120 -5 l-37 17 39 10 c26 6 56 26 85
57 49 49 77 69 100 70 8 0 46 -16 84 -36z m1292 -14 c17 -10 46 -35 64 -54 40
-41 68 -45 132 -20 33 14 47 15 79 5 47 -14 74 -41 41 -41 -36 0 -84 -25 -129
-69 -55 -51 -85 -53 -161 -7 -36 22 -81 39 -129 47 -53 10 -71 17 -67 27 3 8
5 27 5 42 0 20 11 40 37 65 31 30 41 35 67 29 17 -3 45 -14 61 -24z m-45 -189
c19 -15 49 -52 65 -82 35 -62 66 -82 113 -74 46 8 98 -11 121 -44 l20 -28 -48
5 c-38 3 -62 -1 -106 -22 -85 -39 -100 -36 -164 34 -60 64 -91 80 -151 80
l-38 0 18 38 c11 21 24 60 31 87 l12 47 46 -6 c28 -4 59 -17 81 -35z m-1198
-22 c48 0 98 3 111 6 20 5 25 0 45 -46 29 -70 16 -93 -64 -109 -50 -11 -62
-10 -114 9 -31 12 -65 21 -74 21 -9 0 -36 -18 -60 -41 -50 -46 -101 -64 -137
-50 -13 5 -19 10 -12 10 28 2 71 54 92 110 25 70 62 105 100 96 14 -4 64 -6
113 -6z m198 -128 c0 -6 25 -37 56 -70 l55 -60 -33 -36 c-40 -43 -109 -66
-179 -58 -57 7 -83 -7 -108 -55 -26 -51 -53 -73 -101 -82 l-41 -8 19 22 c30
33 40 58 47 117 13 107 21 115 143 134 46 7 106 51 117 86 6 19 25 27 25 10z
m917 -23 c29 -33 41 -59 54 -120 14 -65 31 -86 78 -94 49 -9 85 -31 105 -64
24 -41 20 -50 -15 -33 -25 12 -49 14 -115 9 -51 -4 -91 -3 -102 3 -11 6 -33
39 -50 75 -18 38 -52 85 -82 114 l-52 51 33 40 c29 37 36 41 79 41 36 0 51 -5
67 -22z m-126 -173 c9 -30 8 -56 -1 -102 -15 -78 -9 -96 45 -133 43 -30 65
-69 65 -118 l0 -26 -34 33 c-25 24 -52 37 -98 48 -90 21 -108 41 -108 120 0
76 -21 133 -61 162 l-30 22 48 25 c26 13 62 35 78 49 l30 25 28 -33 c15 -17
32 -50 38 -72z m-398 -25 c25 0 27 -3 27 -42 0 -59 -35 -116 -95 -155 -27 -18
-53 -40 -58 -49 -5 -9 -7 -43 -3 -76 6 -63 -5 -97 -40 -130 -18 -16 -19 -15
-19 30 0 37 -8 60 -39 109 -47 76 -45 90 24 169 49 56 67 101 58 147 l-4 23
60 -13 c34 -7 73 -13 89 -13z m191 -1 c37 -29 34 -72 -9 -153 -19 -37 -35 -72
-35 -79 0 -6 14 -32 30 -57 29 -44 36 -81 24 -127 -9 -32 -18 -29 -33 12 -9
25 -30 47 -72 76 -82 55 -88 72 -60 159 17 53 20 81 15 119 -6 49 -6 50 22 56
16 4 34 8 39 10 26 9 55 3 79 -16z"/>
<path d="M1054 3236 c-44 -19 -74 -73 -74 -131 0 -43 4 -52 39 -85 42 -41 115
-66 157 -56 66 17 119 116 94 176 -17 41 -71 87 -117 99 -48 14 -61 13 -99 -3z
m101 -40 c85 -36 110 -105 59 -165 -41 -50 -122 -37 -177 28 -31 37 -33 60
-12 101 26 51 67 62 130 36z"/>
<path d="M3843 3130 c-95 -45 -121 -62 -117 -74 8 -20 1 -21 68 9 31 14 60 25
64 25 5 0 19 -26 33 -57 13 -32 25 -61 27 -65 2 -4 -24 -21 -57 -38 -43 -21
-59 -34 -55 -45 4 -8 7 -15 9 -15 5 0 259 121 264 126 3 2 0 9 -7 16 -8 8 -24
5 -63 -11 -28 -13 -55 -19 -59 -14 -4 4 -19 34 -33 66 l-27 58 56 26 c51 23
66 46 33 50 -8 1 -69 -25 -136 -57z"/>
<path d="M940 2699 c-32 -13 -40 -26 -40 -70 0 -45 25 -69 72 -69 44 0 68 25
68 72 0 54 -49 87 -100 67z"/>
<path d="M3968 2699 c-32 -12 -48 -53 -37 -93 10 -36 24 -46 70 -46 45 0 69
25 69 72 0 54 -48 86 -102 67z"/>
<path d="M917 2353 c-16 -15 -4 -20 37 -16 40 5 44 3 48 -20 6 -30 -6 -37 -58
-37 -19 0 -34 -4 -34 -10 0 -11 61 -13 95 -4 17 4 20 12 17 50 l-4 44 -47 0
c-26 0 -51 -3 -54 -7z"/>
<path d="M3897 2354 c-13 -13 -7 -61 9 -75 12 -10 20 -10 34 -2 13 9 22 8 39
-3 28 -20 28 2 -1 25 -25 21 -17 42 13 34 16 -4 20 -2 17 8 -5 15 -98 26 -111
13z m43 -39 c0 -16 -6 -25 -15 -25 -9 0 -15 9 -15 25 0 16 6 25 15 25 9 0 15
-9 15 -25z"/>
<path d="M3870 2149 c0 -7 17 -31 38 -52 27 -29 32 -38 17 -34 -57 16 -75 18
-75 9 0 -12 15 -17 73 -28 47 -8 49 8 5 54 l-33 33 44 -7 c54 -9 50 10 -5 20
-19 4 -42 10 -50 13 -8 3 -14 -1 -14 -8z"/>
<path d="M1000 2138 c-19 -5 -52 -14 -72 -19 -45 -12 -52 -34 -8 -24 24 5 29
4 24 -8 -3 -9 4 -25 16 -37 22 -22 59 -21 87 2 16 13 17 54 3 63 -6 4 -8 10
-5 15 9 14 -8 18 -45 8z m35 -48 c0 -22 -4 -25 -35 -25 -43 0 -55 30 -18 45
35 14 53 8 53 -20z"/>
<path d="M3810 1934 c0 -4 7 -12 16 -19 11 -8 14 -19 9 -34 -5 -18 -12 -21
-31 -17 -43 11 -25 -11 26 -32 28 -12 52 -17 55 -11 4 5 -5 13 -19 19 -23 8
-25 12 -14 35 9 19 16 23 35 19 40 -10 25 12 -20 30 -47 18 -57 19 -57 10z"/>
<path d="M1030 1910 c-25 -25 -26 -52 -2 -73 25 -23 54 -21 80 3 26 25 27 38
6 68 -19 28 -57 29 -84 2z m78 -27 c2 -16 -4 -26 -22 -34 -31 -15 -56 -6 -56
20 0 42 72 54 78 14z"/>
<path d="M3709 1719 c-10 -10 -19 -25 -19 -32 0 -20 43 -57 67 -57 25 0 53 30
53 56 -1 15 -4 14 -16 -8 -8 -16 -23 -28 -35 -28 -18 0 -19 2 -4 30 20 38 19
47 -6 53 -13 3 -28 -2 -40 -14z m30 -30 c-7 -14 -14 -18 -21 -11 -13 13 -2 32
18 32 12 0 13 -4 3 -21z"/>
<path d="M1132 1714 c-32 -22 -28 -84 6 -84 12 0 13 3 4 12 -20 20 -14 48 14
60 23 11 29 10 44 -10 23 -28 35 -13 14 16 -18 26 -51 28 -82 6z"/>
<path d="M1281 1574 c11 -14 7 -20 -27 -49 -45 -39 -29 -47 20 -10 25 19 35
22 44 13 6 -6 14 -10 16 -7 7 7 -44 69 -56 69 -6 0 -5 -6 3 -16z"/>
<path d="M3590 1545 l-24 -25 32 -33 c18 -18 32 -41 32 -51 0 -9 5 -14 10 -11
17 10 11 32 -15 63 -44 53 -26 71 27 27 16 -14 34 -23 39 -19 8 5 -7 20 -62
62 -13 10 -20 7 -39 -13z"/>
<path d="M1356 1381 c-32 -32 -54 -61 -48 -65 5 -3 17 3 27 14 18 20 18 20 32
0 20 -28 57 -25 82 6 27 34 27 38 -7 74 l-28 29 -58 -58z m87 5 c8 -20 -21
-56 -44 -56 -27 0 -35 27 -14 50 21 23 51 26 58 6z"/>
<path d="M3440 1381 c-15 -30 -12 -45 14 -70 29 -27 69 -23 86 9 13 24 3 26
-21 4 -11 -10 -25 -14 -35 -10 -15 6 -14 10 9 34 21 22 24 31 15 40 -18 18
-56 14 -68 -7z m50 -10 c0 -12 -29 -35 -36 -28 -11 10 5 37 21 37 8 0 15 -4
15 -9z"/>
<path d="M1570 1280 c0 -5 9 -14 20 -20 10 -6 17 -17 14 -24 -5 -12 -10 -11
-34 2 -27 16 -30 16 -46 0 -20 -20 -12 -48 16 -55 11 -3 20 -9 20 -14 0 -20
19 -7 44 29 15 22 24 46 21 54 -7 18 -55 42 -55 28z m8 -67 c5 -17 -26 -29
-40 -15 -6 6 -7 15 -3 22 9 14 37 9 43 -7z"/>
<path d="M3307 1274 c-3 -4 5 -21 18 -39 30 -39 31 -47 5 -63 -18 -11 -23 -8
-46 28 -15 22 -30 37 -35 34 -11 -6 17 -57 44 -81 16 -15 20 -15 47 5 33 25
46 27 53 10 2 -7 7 -10 11 -6 10 8 -13 50 -23 43 -5 -2 -20 13 -35 35 -28 42
-29 44 -39 34z"/>
<path d="M1716 1133 c-27 -47 -26 -76 1 -36 14 21 16 21 39 7 19 -13 22 -20
14 -34 -13 -23 -13 -30 0 -30 14 0 62 98 50 105 -5 3 -14 -4 -20 -15 -13 -24
-19 -24 -44 -5 -16 12 -17 18 -8 27 14 14 16 28 3 28 -5 0 -21 -21 -35 -47z"/>
<path d="M3102 1148 c-17 -17 -15 -49 4 -76 15 -22 38 -27 68 -16 26 10 18 25
-9 18 -50 -12 -75 40 -32 69 21 15 21 16 2 16 -12 1 -26 -4 -33 -11z"/>
<path d="M1944 1072 c-13 -8 -34 -46 -34 -61 0 -16 38 -51 55 -51 8 0 15 5 15
10 0 6 -6 10 -14 10 -25 0 -37 25 -26 55 9 24 14 27 40 21 31 -6 42 7 14 18
-21 8 -36 7 -50 -2z"/>
<path d="M2929 1028 l-12 -53 -14 43 c-8 23 -19 42 -25 42 -6 0 -8 -6 -5 -14
3 -8 11 -32 18 -55 7 -23 18 -41 25 -41 6 0 18 24 25 53 l12 52 15 -43 c8 -26
18 -40 23 -35 12 12 -19 103 -36 103 -7 0 -18 -22 -26 -52z"/>
<path d="M2110 1029 c0 -4 7 -12 14 -16 12 -6 13 -17 6 -48 -5 -22 -5 -44 -1
-48 5 -5 14 14 21 41 10 42 15 49 31 45 10 -3 19 -1 19 4 0 5 -20 14 -45 20
-25 6 -45 7 -45 2z"/>
<path d="M2306 984 c-3 -9 -6 -33 -6 -54 0 -37 14 -49 57 -50 23 0 44 30 33
49 -6 12 -5 22 1 28 15 15 -17 43 -51 43 -16 0 -30 -7 -34 -16z m64 -19 c0 -8
-9 -15 -20 -15 -11 0 -20 7 -20 15 0 8 9 15 20 15 11 0 20 -7 20 -15z m0 -50
c0 -9 -9 -15 -25 -15 -16 0 -25 6 -25 15 0 9 9 15 25 15 16 0 25 -6 25 -15z"/>
<path d="M2526 984 c-22 -21 -20 -60 4 -84 23 -23 39 -25 65 -6 21 15 25 67 5
90 -16 20 -54 20 -74 0z m59 -44 c0 -41 -27 -53 -45 -20 -16 30 -3 62 23 58
18 -2 22 -10 22 -38z"/>
</g>
</svg>
