<?xml version="1.0" standalone="no"?>
<!DOCTYPE svg PUBLIC "-//W3C//DTD SVG 20010904//EN"
 "http://www.w3.org/TR/2001/REC-SVG-20010904/DTD/svg10.dtd">
<svg version="1.0" xmlns="http://www.w3.org/2000/svg"
 width="500.000000pt" height="500.000000pt" viewBox="0 0 500.000000 500.000000"
 preserveAspectRatio="xMidYMid meet">
<metadata>
Created by potrace 1.16, written by Peter Selinger 2001-2019
</metadata>
<g transform="translate(0.000000,500.000000) scale(0.100000,-0.100000)"
fill="#000000" stroke="none">
<path d="M1985 4838 c-31 -66 -39 -96 -43 -158 -6 -102 13 -156 84 -245 103
-128 102 -137 -19 -355 -48 -85 -71 -189 -65 -291 4 -64 2 -75 -8 -61 -24 35
-34 100 -34 227 0 72 -5 150 -11 175 -23 102 -94 157 -246 190 -48 11 -103 24
-121 29 -87 26 -179 108 -222 197 -12 24 -26 44 -31 44 -29 0 -44 -207 -21
-286 20 -68 69 -130 140 -178 83 -56 94 -65 115 -96 23 -33 22 -94 -4 -193
-26 -100 -29 -238 -5 -312 8 -27 14 -50 12 -52 -6 -6 -55 73 -69 112 -9 22
-30 86 -47 143 -28 87 -40 111 -79 154 -63 68 -109 80 -262 66 -63 -5 -137 -7
-165 -5 -64 6 -159 54 -215 107 -23 22 -46 40 -51 40 -28 0 6 -176 49 -248 53
-93 101 -125 246 -168 112 -33 136 -70 148 -230 9 -121 34 -214 75 -277 45
-68 -7 -27 -100 82 -95 109 -142 146 -201 158 -66 14 -128 -2 -240 -61 -169
-91 -264 -104 -389 -55 -27 11 -53 16 -58 11 -11 -11 53 -116 100 -165 20 -21
66 -52 102 -70 60 -30 70 -32 150 -28 47 2 111 4 142 5 86 2 92 -5 214 -218
l31 -54 -89 46 c-81 43 -96 47 -156 47 -45 -1 -78 -7 -101 -19 -19 -10 -86
-71 -150 -136 -110 -112 -119 -119 -185 -139 -39 -12 -95 -21 -131 -21 -35 0
-66 -4 -69 -9 -10 -15 85 -92 154 -125 57 -27 75 -31 150 -31 80 0 90 3 170
43 62 31 96 42 130 42 53 0 70 -10 163 -97 76 -71 126 -105 195 -132 l47 -19
-38 -7 c-23 -4 -91 0 -167 10 -78 10 -147 14 -172 10 -102 -17 -162 -74 -204
-194 -73 -209 -131 -284 -255 -333 -35 -14 -65 -30 -66 -35 -9 -26 170 -67
247 -58 94 11 154 46 244 141 106 111 116 113 288 53 113 -40 131 -43 223 -43
82 0 113 5 173 26 l72 26 -31 -39 c-62 -79 -112 -102 -286 -130 -251 -40 -301
-91 -317 -324 -13 -179 -51 -263 -155 -342 -28 -21 -50 -43 -50 -50 -1 -15 90
-22 164 -11 78 11 176 59 214 105 17 20 49 74 71 120 63 126 95 143 248 126
82 -9 187 -4 242 11 14 4 -13 -13 -60 -38 -187 -99 -216 -180 -151 -416 37
-133 25 -230 -44 -341 -20 -33 -34 -63 -31 -68 7 -11 82 8 149 37 64 28 150
112 175 171 12 26 26 85 31 130 18 140 45 169 197 206 115 28 172 51 229 93
65 46 69 48 55 23 -6 -12 -55 -68 -108 -124 -54 -57 -107 -121 -117 -142 -41
-83 -18 -185 69 -304 19 -25 46 -71 61 -101 42 -83 46 -217 9 -314 -19 -49 86
12 159 94 86 96 101 179 67 366 -20 103 -4 129 125 216 55 37 122 90 148 119
47 50 117 173 117 204 0 8 5 15 11 15 17 0 2 -71 -47 -216 -52 -155 -55 -199
-18 -273 28 -56 60 -84 179 -154 130 -78 193 -164 216 -296 7 -37 16 -61 24
-61 16 0 69 100 89 169 35 120 15 207 -74 329 -45 62 -54 82 -58 125 -3 47 0
58 37 117 89 141 119 216 134 330 3 23 5 22 22 -15 14 -31 19 -77 24 -205 6
-137 10 -173 28 -211 35 -77 100 -114 265 -147 51 -11 115 -30 141 -42 61 -29
131 -98 163 -161 46 -91 69 -51 69 117 0 85 -3 97 -35 160 -26 51 -48 78 -84
104 -157 113 -170 128 -169 197 0 27 8 75 17 108 27 99 31 218 9 303 -11 39
-16 72 -12 72 3 0 23 -19 44 -41 35 -39 51 -69 134 -253 52 -114 124 -166 231
-166 23 0 88 9 143 21 66 13 122 19 159 16 64 -6 155 -43 210 -87 61 -49 69
-38 44 55 -21 82 -52 141 -97 190 -55 60 -99 81 -212 106 -142 30 -169 58
-193 199 -25 146 -57 225 -132 320 l-27 35 42 -31 c23 -17 78 -73 122 -126
103 -123 142 -154 207 -169 70 -16 116 -3 255 68 100 51 117 57 187 60 75 4
112 -3 199 -38 18 -7 35 -10 39 -7 11 12 -60 131 -108 180 -26 27 -72 60 -102
74 -50 22 -69 25 -200 27 -174 2 -171 0 -246 152 -51 106 -113 185 -185 238
-31 23 -34 28 -15 22 38 -11 74 -31 177 -98 52 -33 111 -66 131 -73 100 -36
179 -4 310 124 121 119 174 145 305 148 54 1 101 4 104 8 11 10 -68 85 -128
121 -117 72 -206 76 -348 15 -61 -26 -85 -31 -128 -28 -51 4 -55 7 -156 105
-105 101 -189 155 -263 169 -19 3 -34 10 -34 15 0 17 104 9 233 -17 160 -33
214 -26 281 36 43 41 46 45 125 211 37 80 61 116 93 143 46 39 129 83 178 92
63 13 22 48 -95 80 -127 35 -236 10 -328 -74 -115 -106 -124 -112 -178 -112
-36 0 -74 11 -146 44 -54 24 -125 50 -158 57 l-60 13 92 18 c121 22 188 58
226 120 27 44 30 58 41 211 15 201 31 244 133 336 l65 61 -28 11 c-44 17 -176
-4 -249 -40 -81 -40 -109 -72 -169 -193 -71 -143 -71 -143 -259 -144 -110 0
-166 -5 -203 -16 -58 -18 -151 -63 -177 -86 -36 -32 -26 -3 16 44 30 33 80 69
151 109 222 124 252 197 176 431 -51 157 -43 263 30 377 33 53 26 64 -28 46
-184 -59 -276 -168 -288 -340 -9 -117 -30 -162 -91 -192 -26 -13 -79 -32 -117
-41 -82 -20 -133 -45 -204 -98 l-53 -40 15 30 c9 17 48 68 87 114 161 189 163
280 8 468 -106 128 -132 220 -106 373 11 66 -8 63 -87 -16 -122 -122 -151
-235 -102 -396 14 -47 26 -95 26 -109 0 -42 -39 -95 -111 -152 -109 -85 -166
-151 -209 -242 l-38 -81 -11 54 c-13 64 -6 110 38 249 38 118 46 174 32 226
-15 54 -75 121 -147 163 -204 119 -249 169 -280 308 -9 43 -21 73 -28 73 -7 0
-30 -37 -51 -82z m113 -150 c39 -57 84 -93 187 -149 142 -78 196 -154 179
-253 -3 -22 -23 -90 -42 -151 -56 -175 -46 -277 39 -401 l30 -44 -64 0 c-80 0
-224 -25 -324 -55 -42 -13 -80 -22 -84 -19 -17 10 -41 105 -46 179 -7 99 12
181 64 274 126 229 126 237 3 397 -27 35 -54 83 -61 107 -15 57 -6 160 22 230
l23 59 21 -64 c12 -36 36 -85 53 -110z m817 49 c1 -114 21 -164 119 -286 87
-110 106 -147 106 -213 0 -63 -22 -104 -108 -211 -84 -104 -103 -133 -117
-182 -8 -23 -25 -61 -39 -84 -14 -22 -33 -59 -42 -81 -12 -31 -21 -40 -33 -35
-34 13 -139 34 -201 41 -65 6 -66 7 -103 57 -44 60 -44 75 8 183 40 82 95 148
168 200 76 55 107 85 128 126 25 50 24 88 -7 189 -44 144 -21 245 78 347 22
23 41 42 42 42 0 0 1 -42 1 -93z m760 -252 c-31 -62 -48 -154 -40 -209 3 -22
20 -85 36 -138 40 -134 45 -178 25 -231 -22 -58 -63 -96 -171 -157 -114 -65
-165 -105 -199 -152 -29 -41 -66 -138 -66 -175 0 -12 -2 -23 -5 -23 -3 0 -28
18 -55 39 -76 60 -187 126 -270 162 -41 17 -76 32 -77 33 -1 1 11 30 27 65 36
74 124 171 194 210 28 16 96 43 152 60 169 52 201 86 215 229 14 139 25 170
88 232 31 30 81 67 111 82 30 14 56 25 57 24 1 -1 -9 -24 -22 -51z m-2360 -20
c23 -34 61 -71 97 -95 60 -40 95 -52 238 -85 94 -22 142 -46 173 -87 37 -51
39 -62 46 -248 8 -192 13 -212 87 -309 l34 -44 -88 -49 c-76 -44 -116 -71
-217 -150 -20 -16 -24 -16 -72 7 -46 21 -53 28 -73 82 -35 89 -39 227 -10 343
40 163 21 225 -93 302 -115 76 -148 120 -168 221 -8 42 -4 167 5 167 2 0 20
-25 41 -55z m-539 -526 c47 -23 56 -24 237 -21 158 2 193 0 223 -14 60 -29 90
-77 135 -218 22 -72 55 -153 72 -179 32 -52 114 -120 165 -138 l32 -11 -70
-82 c-58 -69 -170 -240 -183 -280 -6 -17 -71 21 -132 77 -105 94 -151 200
-164 381 -14 180 -40 211 -221 265 -64 20 -82 30 -126 75 -51 53 -83 118 -98
199 l-7 38 44 -34 c25 -19 67 -45 93 -58z m3543 24 c-77 -88 -108 -191 -109
-368 0 -100 -15 -143 -64 -191 -46 -43 -96 -62 -231 -84 -87 -14 -255 -65
-315 -95 -25 -13 -63 -39 -85 -58 l-39 -34 -39 56 c-22 31 -64 84 -93 118 -56
64 -61 81 -44 144 7 26 25 48 63 78 107 82 216 112 379 104 177 -9 209 10 293
179 43 88 57 107 99 135 57 39 124 61 184 62 l44 1 -43 -47z m-1689 -318 c263
-40 469 -143 650 -325 457 -456 449 -1196 -18 -1642 -149 -142 -317 -234 -527
-289 -115 -29 -330 -37 -454 -15 -377 66 -686 301 -850 647 -244 512 -69 1136
404 1444 104 68 160 96 270 133 165 57 353 74 525 47z m-1767 -279 c18 -7 82
-66 142 -131 61 -64 130 -129 155 -143 25 -14 62 -40 83 -58 21 -17 58 -42 83
-55 30 -17 42 -29 38 -39 -3 -8 -15 -48 -27 -88 -21 -71 -23 -75 -69 -98 -135
-68 -250 -66 -324 7 -23 23 -66 86 -96 141 -59 111 -108 163 -163 174 -20 3
-76 1 -125 -5 -107 -14 -163 -4 -233 41 -40 26 -127 121 -127 140 0 3 23 -1
52 -8 106 -28 200 -12 318 54 127 71 154 81 208 81 29 1 67 -5 85 -13z m3896
-44 l55 -17 -66 -33 c-94 -46 -154 -115 -208 -239 -81 -186 -120 -223 -234
-223 -39 0 -109 9 -156 20 -108 25 -182 25 -259 1 -68 -21 -154 -82 -202 -142
-37 -46 -49 -49 -49 -10 0 55 -51 226 -97 324 l-46 98 27 28 c64 67 209 121
321 121 83 -1 135 -14 240 -62 170 -78 208 -73 331 42 62 59 96 83 131 94 64
19 146 19 212 -2z m-4002 -519 c32 -16 99 -52 148 -79 90 -49 90 -49 180 -48
87 0 101 4 206 48 15 6 15 1 7 -46 -9 -45 -6 -316 4 -398 3 -23 -2 -26 -56
-37 -69 -13 -187 -4 -256 21 -61 23 -110 56 -206 142 -100 89 -114 96 -177 96
-39 -1 -70 -11 -133 -42 -102 -51 -169 -60 -246 -36 -53 18 -158 75 -158 87 0
3 29 9 64 11 108 9 164 42 290 173 61 63 127 122 146 130 49 22 119 14 187
-22z m3208 -35 c78 -19 158 -71 245 -159 106 -108 127 -121 193 -123 41 -1 70
7 136 38 78 36 89 38 155 34 77 -5 154 -36 214 -87 l33 -28 -80 -6 c-115 -7
-165 -34 -289 -151 -61 -58 -122 -106 -149 -118 -78 -34 -149 -14 -279 78 -77
55 -156 92 -214 100 -25 3 -83 15 -129 26 -46 11 -99 18 -117 16 l-34 -4 0
102 0 102 46 57 c26 31 73 77 106 101 63 46 65 46 163 22z m-160 -433 c150
-40 252 -130 335 -298 55 -113 96 -160 152 -175 22 -6 87 -8 151 -5 102 5 116
4 156 -16 24 -12 63 -41 87 -63 43 -39 90 -105 82 -113 -2 -2 -26 2 -53 10
-108 33 -211 15 -355 -63 -100 -54 -158 -69 -213 -52 -61 17 -99 50 -183 156
-130 164 -200 199 -375 192 -55 -2 -99 -3 -99 -1 0 1 15 31 34 65 41 75 90
216 107 311 l12 67 52 0 c28 0 77 -7 110 -15z m-2455 -208 c17 -48 39 -106 51
-129 20 -39 20 -43 5 -83 -15 -38 -24 -46 -84 -73 -118 -55 -261 -62 -377 -19
-22 8 -66 24 -97 36 -117 43 -179 22 -282 -95 -79 -89 -132 -114 -242 -114
-45 0 -95 5 -113 11 l-31 11 52 26 c62 31 129 94 157 150 11 22 38 87 60 145
22 58 50 120 63 137 53 72 124 89 270 66 120 -20 178 -20 246 -2 32 8 80 11
120 9 37 -3 83 0 102 5 63 19 69 14 100 -81z m141 -284 c24 -38 92 -117 151
-176 l108 -109 -17 -31 c-27 -53 -124 -140 -194 -174 -96 -48 -153 -57 -304
-49 -78 4 -144 2 -164 -4 -53 -15 -89 -56 -137 -156 -36 -76 -52 -98 -91 -127
-61 -44 -129 -67 -200 -67 l-56 0 52 55 c79 84 101 140 117 307 22 236 54 269
299 308 84 13 148 29 182 46 63 30 134 107 174 186 16 32 31 58 33 58 2 0 23
-30 47 -67z m2271 -32 c65 -69 111 -159 128 -251 44 -232 70 -265 225 -290
155 -24 252 -112 289 -263 l7 -28 -42 27 c-104 65 -209 78 -359 44 -199 -46
-277 -9 -349 165 -59 143 -87 189 -142 237 -78 69 -98 88 -157 157 l-53 61 53
63 c29 35 64 78 78 96 21 27 35 34 80 41 30 5 84 7 120 5 65 -4 65 -4 122 -64z
m-430 -218 c62 -64 112 -162 129 -253 13 -77 8 -142 -26 -290 -27 -119 -4
-173 107 -248 40 -28 85 -63 100 -78 56 -60 88 -175 73 -269 l-6 -47 -28 44
c-63 99 -152 152 -307 182 -106 20 -163 41 -197 74 -54 51 -60 74 -68 257 -7
182 -14 210 -70 292 -16 23 -58 63 -93 89 l-64 48 106 52 c59 29 148 85 197
123 50 38 92 70 95 70 3 1 27 -20 52 -46z m-1484 -90 c32 -21 86 -51 119 -67
56 -27 62 -32 72 -72 6 -24 11 -74 11 -111 l0 -69 -47 -46 c-76 -73 -140 -106
-267 -137 -63 -16 -130 -37 -148 -48 -48 -28 -77 -87 -89 -184 -13 -108 -41
-170 -97 -219 -41 -37 -137 -90 -161 -90 -5 0 4 30 22 68 45 96 48 184 12 327
-20 78 -26 123 -23 170 6 94 33 123 194 207 138 73 227 148 301 256 20 28 38
52 39 52 2 0 30 -17 62 -37z m337 -144 c44 -10 134 -24 200 -30 66 -5 126 -12
133 -14 16 -6 16 -125 -2 -190 -34 -127 -116 -233 -251 -320 -96 -62 -141
-111 -151 -162 -4 -23 0 -72 11 -129 27 -136 14 -203 -53 -292 -14 -18 -41
-45 -61 -61 l-36 -29 0 117 c0 132 -2 136 -105 293 -66 100 -85 162 -68 224
14 52 36 81 141 193 110 115 140 174 141 276 1 38 -3 90 -7 114 -7 39 -6 43
10 36 10 -3 54 -15 98 -26z m711 -18 c102 -68 108 -78 102 -168 -7 -92 -37
-173 -98 -262 -53 -79 -70 -120 -70 -170 0 -54 12 -83 64 -149 24 -32 51 -72
60 -91 38 -72 30 -193 -19 -290 l-22 -44 -7 39 c-11 59 -49 137 -91 183 -21
23 -79 67 -129 97 -210 129 -231 191 -146 419 42 112 53 179 39 246 -5 30 -13
81 -16 114 l-5 61 89 13 c48 7 106 19 128 26 58 19 57 19 121 -24z"/>
</g>
</svg>
