<?xml version="1.0" standalone="no"?>
<!DOCTYPE svg PUBLIC "-//W3C//DTD SVG 20010904//EN"
 "http://www.w3.org/TR/2001/REC-SVG-20010904/DTD/svg10.dtd">
<svg version="1.0" xmlns="http://www.w3.org/2000/svg"
 width="500.000000pt" height="500.000000pt" viewBox="0 0 500.000000 500.000000"
 preserveAspectRatio="xMidYMid meet">

<g transform="translate(0.000000,500.000000) scale(0.100000,-0.100000)"
fill="#000000" stroke="none">
<path d="M2170 4946 c-95 -64 -160 -324 -160 -636 0 -274 63 -566 141 -654
l29 -33 -36 -82 c-99 -229 -108 -458 -28 -706 39 -118 125 -294 259 -524 174
-301 245 -467 276 -641 17 -100 15 -449 -5 -655 -29 -304 -114 -714 -171 -831
-35 -71 -98 -112 -153 -98 -71 18 -100 106 -67 205 10 30 56 142 103 249 105
244 145 346 189 485 86 277 96 549 27 765 -69 218 -259 415 -464 482 -56 18
-88 20 -229 19 -209 -1 -232 8 -341 128 -76 83 -158 144 -242 180 -25 11 -118
38 -205 61 -197 51 -305 100 -375 172 -48 49 -51 51 -64 33 -21 -29 -18 -121
7 -172 36 -75 94 -117 281 -201 110 -51 166 -103 235 -220 69 -117 102 -155
159 -183 41 -19 56 -21 132 -15 48 4 106 9 130 12 87 12 125 -8 262 -141 69
-67 145 -132 169 -144 24 -13 101 -36 172 -52 142 -32 211 -61 263 -114 78
-77 123 -202 111 -304 -25 -210 -90 -407 -278 -836 -84 -194 -102 -256 -92
-321 13 -86 99 -146 177 -124 92 27 140 112 197 350 82 337 110 565 118 930 5
255 3 282 -17 379 -37 182 -100 323 -298 666 -177 307 -243 465 -272 648 -26
162 4 364 77 519 31 67 38 76 54 68 87 -47 440 115 689 316 69 56 196 183 224
224 36 54 7 131 -57 148 -29 8 -91 2 -127 -12 -12 -5 -14 2 -12 42 2 30 -3 66
-16 99 l-19 51 51 6 c68 9 298 -10 362 -29 67 -20 129 -66 153 -114 l20 -39
-20 -84 c-42 -165 -110 -278 -335 -553 -153 -188 -380 -485 -453 -593 -94
-140 -149 -301 -138 -407 8 -80 28 -136 46 -133 11 2 19 27 28 97 33 248 102
355 329 511 112 78 244 189 268 225 l16 24 54 -25 c161 -73 422 -69 470 8 9
15 5 23 -24 47 -20 16 -53 61 -75 101 -67 121 -95 132 -214 75 -40 -19 -74
-35 -76 -35 -1 0 16 38 39 85 l41 85 50 -5 c28 -3 87 -18 133 -32 94 -30 115
-26 120 25 2 22 -5 39 -28 65 -34 39 -91 57 -182 57 -47 0 -50 1 -44 23 30
105 41 184 41 305 0 98 3 132 12 132 20 0 100 -108 148 -201 56 -109 91 -228
115 -399 32 -225 95 -320 244 -370 77 -25 125 -56 145 -92 14 -24 13 -34 -3
-97 -17 -66 -18 -116 -2 -151 4 -10 -3 -19 -21 -28 -30 -13 -193 -229 -193
-255 0 -31 94 -80 193 -102 24 -5 27 -9 21 -28 -14 -43 -3 -83 46 -155 99
-146 89 -218 -37 -281 -91 -45 -146 -53 -401 -58 -201 -4 -248 -3 -275 10 -19
9 -78 17 -147 20 -163 9 -333 62 -442 138 -31 22 -58 25 -58 5 0 -20 98 -92
171 -124 102 -46 289 -82 430 -82 48 0 65 -14 53 -44 -3 -8 -40 -34 -82 -59
-69 -40 -169 -130 -220 -197 -62 -82 -156 -274 -203 -414 -45 -134 -60 -212
-66 -346 -8 -205 19 -323 113 -485 84 -145 106 -196 111 -257 7 -70 -13 -131
-57 -173 -29 -28 -31 -45 -6 -45 43 0 106 116 106 196 0 58 -39 158 -105 269
-105 176 -143 339 -125 533 19 204 113 466 236 659 51 80 167 192 240 230 71
38 95 62 98 97 l1 26 175 0 c326 0 466 33 553 129 33 37 37 47 37 95 0 64 -13
98 -74 190 -25 38 -46 77 -46 88 0 10 20 38 45 62 50 49 56 76 29 127 -14 28
-14 34 1 71 20 51 14 78 -35 159 -45 72 -48 99 -23 190 16 58 16 61 -5 104
-24 50 -71 81 -173 114 -99 32 -159 98 -188 206 -5 22 -19 99 -30 170 -31 205
-73 320 -166 460 -82 123 -88 129 -129 129 -21 0 -36 5 -36 12 0 6 -18 31 -39
56 -47 53 -128 92 -222 107 -79 13 -314 18 -346 7 -18 -6 -28 1 -57 41 -66 91
-87 139 -95 221 -12 116 -32 142 -109 142 -46 0 -99 -41 -158 -121 l-37 -51
-29 63 c-31 68 -75 121 -120 145 -42 22 -108 18 -148 -10z m176 -60 c39 -41
84 -134 84 -174 0 -9 -42 -74 -93 -145 -189 -259 -227 -352 -227 -546 0 -81
24 -220 49 -285 7 -16 9 -31 7 -34 -7 -6 -21 31 -52 133 -84 274 -89 604 -15
902 36 147 73 193 154 193 47 0 54 -3 93 -44z m364 -16 c9 -6 16 -35 21 -87 7
-85 31 -145 95 -233 l34 -48 -45 -22 c-91 -44 -146 -109 -346 -408 -105 -158
-193 -289 -196 -292 -3 -3 7 22 22 55 157 354 201 524 192 744 l-5 124 50 68
c27 38 61 78 75 89 27 21 78 26 103 10z m-263 -385 c-8 -184 -44 -307 -183
-625 l-58 -134 -13 33 c-26 63 -44 178 -44 278 0 83 5 117 26 180 33 98 55
135 174 302 68 95 97 128 100 115 2 -11 1 -77 -2 -149z m456 -60 c17 -35 22
-101 11 -140 -3 -12 -31 -34 -68 -53 -96 -50 -203 -124 -294 -204 -46 -40
-101 -88 -123 -107 -31 -27 -12 7 98 170 74 112 156 228 181 257 43 51 131
112 163 112 8 0 23 -16 32 -35z m192 -169 c31 -13 35 -19 35 -53 0 -34 -9 -45
-108 -143 -131 -128 -256 -218 -422 -304 -119 -61 -251 -116 -281 -116 -7 0 4
15 26 32 98 80 322 285 459 421 123 121 158 150 195 162 59 18 56 18 96 1z
m-335 -157 c-266 -253 -479 -439 -502 -439 -40 0 243 289 393 402 72 54 188
128 199 127 3 0 -38 -41 -90 -90z m757 -16 c-9 -119 -50 -263 -111 -389 -99
-206 -220 -347 -425 -496 -173 -125 -213 -160 -265 -229 -47 -63 -79 -135
-102 -234 l-14 -60 5 63 c13 163 135 355 580 907 188 233 258 338 303 447 15
37 29 68 31 68 2 0 1 -35 -2 -77z m158 -297 c33 -14 65 -59 52 -72 -3 -3 -34
3 -69 14 -35 12 -89 26 -120 32 -43 8 -56 15 -51 26 7 19 141 19 188 0z m-78
-218 c11 -13 37 -52 57 -88 21 -36 47 -72 58 -81 l21 -17 -24 -13 c-17 -10
-61 -14 -144 -14 -97 0 -134 4 -190 22 -102 33 -103 34 -69 78 21 27 57 51
129 86 55 27 109 49 121 49 11 0 30 -10 41 -22z m662 -652 c18 -21 29 -69 21
-91 -5 -13 -17 -20 -42 -21 -36 -3 -77 -18 -137 -54 -19 -11 -37 -18 -39 -15
-2 2 28 47 67 99 55 75 76 96 95 96 13 0 29 -6 35 -14z m-3554 -126 c55 -61
171 -111 400 -171 217 -58 271 -88 393 -214 137 -145 148 -149 367 -150 151 0
178 -3 243 -24 247 -81 439 -340 467 -628 l6 -68 -30 51 c-63 107 -153 161
-336 200 -165 35 -192 50 -325 184 -98 99 -124 120 -175 140 -60 22 -60 22
-180 6 -143 -19 -179 -12 -233 42 -20 21 -62 80 -92 132 -30 52 -75 115 -100
140 -47 47 -71 60 -230 133 -115 53 -156 86 -186 152 -37 77 -30 120 11 75z
m3563 -53 c33 -50 25 -118 -11 -89 -7 5 -47 18 -89 28 -42 9 -74 22 -71 27 6
10 123 67 138 67 6 0 20 -15 33 -33z"/>
</g>
</svg>
